<svg xmlns="http://www.w3.org/2000/svg" width="200.032" height="133.355" viewBox="0 0 200.032 133.355">
  <g id="Group_70" data-name="Group 70" transform="translate(0 0)">
    <path id="Path_72" data-name="Path 72" d="M189.773,85.333H10.258A10.288,10.288,0,0,0,0,95.591V208.429a10.289,10.289,0,0,0,10.258,10.258H189.774a10.289,10.289,0,0,0,10.258-10.258V95.591A10.289,10.289,0,0,0,189.773,85.333Zm-3.849,7.693-80.007,60.01a10.725,10.725,0,0,1-11.8,0L14.107,93.026ZM143.187,157l43.6,53.855c.044.054.1.095.144.144H13.1c.046-.051.1-.09.144-.144L56.845,157a3.848,3.848,0,0,0-5.981-4.842L7.693,205.483V97.835L89.5,159.19a18.362,18.362,0,0,0,21.028,0l81.808-61.356V205.482l-43.17-53.328a3.847,3.847,0,0,0-5.98,4.842Z" transform="translate(0 -85.333)" fill="#fff"/>
  </g>
</svg>
