<svg id="Group_72" data-name="Group 72" xmlns="http://www.w3.org/2000/svg" width="200.061" height="200.047" viewBox="0 0 200.061 200.047">
  <g id="Group_71" data-name="Group 71">
    <path id="Path_73" data-name="Path 73" d="M195.812,155.348l-40.493-27a11.819,11.819,0,0,0-15.826,2.57l-11.8,15.166a5.041,5.041,0,0,1-6.464,1.36L118.99,146.2c-7.438-4.054-16.693-9.1-35.339-27.754S59.947,90.534,55.893,83.11l-1.23-2.244A5.048,5.048,0,0,1,56,74.378L71.152,62.586A11.825,11.825,0,0,0,73.725,46.76l-27-40.493A11.757,11.757,0,0,0,30.873,2.7L13.94,12.871A23.885,23.885,0,0,0,3.048,27.007c-6.1,22.217-1.51,60.56,54.972,117.049,44.931,44.927,78.379,57.009,101.37,57.009a59.064,59.064,0,0,0,15.669-2.047,23.863,23.863,0,0,0,14.135-10.892L199.376,171.2A11.759,11.759,0,0,0,195.812,155.348Zm-2.18,12.435-10.158,16.933A17.23,17.23,0,0,1,173.3,192.6c-20.51,5.631-56.342.967-110.568-53.258S3.848,49.284,9.479,28.771A17.256,17.256,0,0,1,17.37,18.589L34.3,8.431a5.1,5.1,0,0,1,6.878,1.547L55.85,32,68.162,50.467a5.131,5.131,0,0,1-1.113,6.868L51.89,69.127A11.668,11.668,0,0,0,48.8,84.1L50,86.29c4.261,7.815,9.558,17.536,28.9,36.873s29.058,24.634,36.869,28.894l2.19,1.207a11.669,11.669,0,0,0,14.976-3.09l11.792-15.159A5.134,5.134,0,0,1,151.6,133.9l40.49,27A5.1,5.1,0,0,1,193.632,167.783Z" transform="translate(-1 -1.018)" fill="#fff"/>
    <path id="Path_74" data-name="Path 74" d="M285.962,75.991a56.739,56.739,0,0,1,56.676,56.676,3.334,3.334,0,1,0,6.667,0,63.413,63.413,0,0,0-63.343-63.343,3.334,3.334,0,0,0,0,6.667Z" transform="translate(-172.6 -42.638)" fill="#fff"/>
    <path id="Path_75" data-name="Path 75" d="M285.962,127.191a36.716,36.716,0,0,1,36.673,36.673,3.334,3.334,0,0,0,6.667,0,43.39,43.39,0,0,0-43.34-43.34,3.334,3.334,0,0,0,0,6.667Z" transform="translate(-172.6 -73.835)" fill="#fff"/>
    <path id="Path_76" data-name="Path 76" d="M285.962,178.391a16.69,16.69,0,0,1,16.669,16.669,3.334,3.334,0,1,0,6.667,0,23.364,23.364,0,0,0-23.337-23.337,3.334,3.334,0,1,0,0,6.667Z" transform="translate(-172.6 -105.031)" fill="#fff"/>
  </g>
</svg>
